# xmcd CD database file
#
# Track frame offsets:
#	150
#	34164
#	66974
#	90277
#	117849
#	141423
#	169021
#	207541
#	227710
#	249281
#
# Disc length: 3822 seconds
#
# Revision: 0
# Processed by: cddbd v1.5.2PL0 Copyright (c) Steve Scherf et al.
# Submitted via: CDex 1.70beta2
#
DISCID=860eec0a
DTITLE=James Carter - Presenttense
DYEAR=1900
DGENRE=Jazz
TTITLE0=Rapid Shave
TTITLE1=Bro.Dolphy
TTITLE2=Pout Que Ma Vie Demeure
TTITLE3=Sussa Nita
TTITLE4=Song Of Delilah
TTITLE5=Dodo's Bounce
TTITLE6=Shadowy Sands
TTITLE7=Hymn Of Orient
TTITLE8=Bossa J.C
TTITLE9=Tenderly
EXTD=
EXTT0=
EXTT1=
EXTT2=
EXTT3=
EXTT4=
EXTT5=
EXTT6=
EXTT7=
EXTT8=
EXTT9=
PLAYORDER=
